<?xml version="1.0" encoding="utf-8"?>
<!-- Generator: Adobe Illustrator 21.0.0, SVG Export Plug-In . SVG Version: 6.00 Build 0)  -->
<svg version="1.1" id="Calque_1" xmlns="http://www.w3.org/2000/svg" xmlns:xlink="http://www.w3.org/1999/xlink" x="0px" y="0px"
	 viewBox="0 0 100 125" style="enable-background:new 0 0 100 125;" xml:space="preserve">
<path d="M70,16.2c-0.1-0.6-0.5-1-1-1.2c-3.3-1.2-7.6-2.4-12.3-2.4c-3.6,0-7.5,0.7-11.1,2.8l0,0c-1.8,1.1-3.2,2.4-4.3,3.9
	c-1.6,2.2-2.5,4.8-3,7.5c-0.4,2.1-0.5,4.3-0.6,6.4c-0.9,0-2,0-3,0c-0.8,0-1.6,0-2.2,0c-0.3,0-0.5,0-0.7,0c-0.2,0-0.2,0-0.2,0
	c-0.4,0-0.8,0.2-1.1,0.5c-0.3,0.3-0.5,0.7-0.5,1.1l0.1,10.6c0,0.9,0.7,1.7,1.6,1.7c0,0,0.4,0,1.1,0c1.6,0,4.5-0.1,6.7,0
	c0.3,7.3,0.4,18.1,0.4,26.6c0,3.6,0,6.7,0,8.9c0,1.1,0,2,0,2.6c0,0.6,0,0.9,0,0.9c0,0.4,0.2,0.8,0.5,1.1c0.3,0.3,0.7,0.5,1.1,0.5
	l14.1-0.1c0.4,0,0.8-0.2,1.1-0.5c0.3-0.3,0.5-0.7,0.5-1.1c0,0-0.1-8.7-0.2-18.1c-0.1-8.1-0.2-16.6-0.2-20.6c0.9,0,1.9,0,2.9,0
	c1.2,0,2.3,0,3.1,0c0.4,0,0.8,0,1,0c0.2,0,0.4,0,0.4,0c0.4,0,0.8-0.2,1.1-0.5s0.5-0.7,0.5-1.1l0-9.8c0-0.4-0.2-1-0.5-1.3
	C65,34.3,64.6,34,64.2,34c0,0-0.2,0-0.5,0s-0.8,0.1-1.4,0.1c-1.8,0-4.5,0.1-6.6,0c0-1.1,0.1-2,0.3-2.8c0.2-0.8,0.4-1.4,0.6-2
	c0.2-0.4,0.4-0.7,0.6-1c0.3-0.4,0.7-0.7,1.2-0.9c0.5-0.2,1.1-0.3,1.8-0.3c1.4,0,3.2,0.4,5.5,1.3c0,0,0,0,0.1,0c0,0,0,0,0.1,0
	c0,0,0.1,0,0.1,0c0.1,0,0.1,0,0.2,0c0.1,0,0.1,0,0.2,0c0.1,0,0.1,0,0.2,0c0.1,0,0.1,0,0.2,0c0.1,0,0.1,0,0.2,0c0,0,0.1,0,0.1,0
	c0,0,0.1,0,0.1-0.1c0,0,0.1,0,0.1-0.1c0,0,0.1-0.1,0.1-0.1c0,0,0.1-0.1,0.1-0.1c0,0,0.1-0.1,0.1-0.1c0,0,0.1-0.1,0.1-0.1
	c0,0,0.1-0.1,0.1-0.1c0,0,0-0.1,0.1-0.1c0,0,0-0.1,0-0.1c0,0,0,0,0-0.1c0,0,0,0,0,0c0.3-1.1,0.9-2.8,1.3-4.7
	c0.2-0.9,0.5-1.9,0.6-2.8c0.2-0.9,0.3-1.8,0.3-2.6C70.1,17,70,16.6,70,16.2z M56.6,24.8c-0.8,0.4-1.5,1-2,1.7
	c-0.8,1-1.4,2.3-1.7,3.8c-0.3,1.5-0.5,3.1-0.5,5c0,0.2,0,0.4,0,0.6c0,0.8,0.7,1.3,1.5,1.3c2.3,0.1,6-0.1,8.2-0.1c0.1,0,0.2,0,0.3,0
	l0,6.8c-0.8,0-1.9,0.1-2.9,0.1c-1.7,0-3.4,0.1-4.6,0.1c-0.9,0-1.5,0.8-1.5,1.6c0,2.7,0.1,12.8,0.2,22.2c0,4.7,0.1,9.2,0.1,12.6
	c0,1.6,0,3,0,3.9L43,84.4c0-2.1,0-6.1,0-10.9c0-9.1-0.1-20.9-0.5-28.2c0-0.8-0.7-1.5-1.5-1.5c-2.2-0.1-5.7-0.1-7.8-0.1l0-7.3
	c0.5,0,1,0,1.5,0c1.6,0,3.3,0,4.6-0.1c0.8,0,1.5-0.7,1.5-1.5c0.1-3.3,0.3-6.7,1.2-9.6c0.4-1.4,1.1-2.8,1.9-3.9
	c0.8-1.2,1.9-2.2,3.3-3l0,0c3-1.8,6.3-2.4,9.5-2.4c3.7,0,7.3,0.9,10.2,1.8c0,0.5-0.1,1.1-0.2,1.8c-0.2,1.2-0.6,2.6-0.9,3.9
	c-0.2,0.6-0.3,1.1-0.5,1.7c-1.9-0.6-3.5-0.9-5.1-0.9C58.9,24,57.7,24.3,56.6,24.8z"/>
</svg>
