<?xml version="1.0" encoding="utf-8"?>
<!-- Generator: Adobe Illustrator 21.0.0, SVG Export Plug-In . SVG Version: 6.00 Build 0)  -->
<svg version="1.1" id="Calque_1" xmlns="http://www.w3.org/2000/svg" xmlns:xlink="http://www.w3.org/1999/xlink" x="0px" y="0px"
	 viewBox="0 0 841.9 1190.5" style="enable-background:new 0 0 841.9 1190.5;" xml:space="preserve">
<style type="text/css">
	.st0{fill-rule:evenodd;clip-rule:evenodd;fill:#FFFFFF;}
	.st1{fill-rule:evenodd;clip-rule:evenodd;fill:#070707;}
	.st2{fill-rule:evenodd;clip-rule:evenodd;fill:#070404;}
	.st3{fill-rule:evenodd;clip-rule:evenodd;fill:#020202;}
	.st4{fill-rule:evenodd;clip-rule:evenodd;fill:#050505;}
	.st5{fill-rule:evenodd;clip-rule:evenodd;fill:#FEFEFE;}
</style>
<g>
	<path class="st0" d="M371.4,532.6c6.7-2.1,12.3-3.9,18.5-5.8c1,3.5,1.8,6.5,2.7,9.9c1.3-0.1,2.7-0.2,4.5-0.3
		c-0.5-3.6-1-6.8-1.6-10.8c7.1-0.8,13.9-1.5,21.1-2.3c0.2,4,0.4,7.2,0.6,10.5c4.2,0.6,4.2,0.6,5.1-10.4c6.8,0.7,13.6,1.4,20.9,2.2
		c-0.5,3.8-1,7-1.5,10.9c7.8,1.1,4.2-6.3,8.2-9.2c4.9,1.5,10.7,3.3,17.4,5.4c-4.7,9-9.2,17.1-13.3,25.5c-1.2,2.5-2,5.7-1.6,8.4
		c3.4,24.7,7,49.4,10.8,74.1c0.5,3,1.7,6.1,3.2,8.7c3.9,6.8,8.1,13.3,12.5,20.5c-15.2,8-30.9,12.5-48.4,14.2c0-5.3,0-10,0-14.8
		c0-5,0.2-10-0.1-15c-0.3-6.7-3.1-9.1-9.6-8.7c-1,0.1-2,0.1-3,0c-6.6-0.5-9.5,2.2-9.6,9.2c-0.1,7.8,0,15.7,0,23.5c0,1.6,0,3.3,0,5.6
		c-17.3-1.2-32.9-6.2-48.4-13.9c2.9-4.8,5.3-9.5,8.5-13.7c5.3-7.2,7.6-15.2,8.7-24c3-22.4,6.5-44.8,9.6-67.2c0.3-1.9-0.4-4.2-1.3-6
		C380.9,550.3,376.3,541.9,371.4,532.6z M399.4,650c1.8-10,9-16.7,17.8-17.8c11.8-1.4,18.9,7.1,22.7,18.6c6-2.1,11.7-3.9,17.2-6
		c1.1-0.4,1.8-2.2,2.6-3.3c-0.4-0.3-0.8-0.6-1.2-0.8c-3.2,0.8-6.3,1.7-9.5,2.5c-0.1-0.4-0.2-0.9-0.4-1.3c2.1-0.7,4.2-1.5,6.3-2.2
		c3.9-1.3,3.9-1.3,2.8-4.6c-4.9,1.1-9.7,2.2-14.6,3.3c-0.1-0.5-0.2-1-0.3-1.5c3.6-1,7.2-2.1,10.9-2.8c3.5-0.7,4.4-2.2,3.8-5.8
		c-2.5-15.3-4.8-30.6-6.7-46c-0.7-5.8-2.3-9.8-8.7-10.3c-0.8-0.1-1.5-0.8-2.2-1.2c0.1-0.3,0.2-0.6,0.3-0.9c2.8,0.6,5.5,1.2,9.3,2.1
		c-2.8-7.9-10.8-4.7-14.4-9.4c4.1,0.9,8.3,1.9,12.4,2.8c0.4-2.7,0.7-5,1.2-9.1c-2.3,1.3-3.7,2.1-5.1,2.8c-0.8,0.4-1.7,0.9-2.4,0.8
		c-0.7-0.2-1.3-1.1-1.8-1.8c-0.6-0.9-1-2.5-1.7-2.6c-0.9-0.1-2,0.9-2.9,1.4c-0.8,0.5-1.6,1.4-2.5,1.5c-0.6,0-1.2-1.1-1.8-1.8
		c-0.8-0.8-1.5-2.3-2.3-2.3c-0.8-0.1-1.7,1.3-2.6,2c-0.7,0.5-1.4,1.4-2.1,1.3c-0.7,0-1.4-0.9-2-1.5c-1.2-1-2.3-2.1-3.8-3.5
		c-1.8,6.3-1.7,6.2-5.8,2.3c-1.5-1.5-3.6-1.8-4.3,1.3c-0.2,0.9-1.1,2.1-1.9,2.2c-0.8,0.1-1.6-1-2.5-1.5c-0.8-0.5-1.8-1.5-2.5-1.4
		c-0.8,0.1-1.4,1.3-2.1,2c-0.9,1.1-1.8,2.2-2.7,3.4c-0.2-0.6-0.3-1.1-0.5-1.7c-1.8-0.7-3.5-1.4-6-2.3c0.5,3.8,0.7,6.2,1.1,8.8
		c2.3-0.6,4.3-1.3,6.4-1.8c2-0.4,4.1-0.6,6.2-0.9c-13.4,6.2-13.4,6.2-13.2,8.7c2.6-0.5,5.3-1,7.9-1.6c-1,1.6-2.2,2.3-3.4,2.4
		c-4.9,0.6-6.4,3.5-6.8,8.1c-0.6,6.3-1.8,12.5-2.7,18.8c-1.6,11-3.1,22-4.8,33.4c5.4,1.5,10.4,2.9,15.5,4.4
		c-0.1,0.5-0.3,0.9-0.4,1.4c-5-1.2-10.1-2.4-15.6-3.7c0.3,6.9,7.8,4.1,10.4,8.7c-4.1-1.2-7.4-2.1-10.7-3
		C379.4,644.8,387.8,648.7,399.4,650z M385.3,550.4c0,0.5,0,1-0.1,1.5c1.3,0.3,2.7,1,3.8,0.7c20.2-5.4,40.4-5.4,60.6,0
		c1.1,0.3,2.4-0.4,3.7-0.7c0-0.5,0-1-0.1-1.5c-4.4-1.3-8.8-2.6-14.4-4.3c6.7-1.8,11.7,3.8,17.9,0.8c-2-1.5-3-2.3-4.9-3.7
		c2.6,0.2,4,0.3,5.6,0.5c1.4-3,2.7-5.8,4.3-9.1c-3.7-1.1-7-2.1-10.5-3.2c-0.9,3.4-1.7,6.4-2.6,9.7c-3.8-0.8-7.3-1.6-11.1-2.4
		c0.5-3.4,0.9-6.4,1.4-9.9c-4.5-0.5-8.8-0.9-13.3-1.4c-0.3,3.6-0.6,6.7-0.8,9.8c-3.8,0-7.4,0-11.1,0c-0.3-3.4-0.6-6.4-0.9-9.9
		c-4.6,0.5-8.7,1-13.1,1.5c0.5,3.5,0.9,6.5,1.4,9.9c-3.8,0.8-7.3,1.6-11.1,2.4c-0.9-3.4-1.8-6.3-2.7-9.7c-3.6,1.1-6.9,2.2-10.4,3.3
		c1.6,3.3,3.1,6.2,4.4,9c1.8-0.1,3.1-0.2,4.7-0.3c-1.1,1.6-2,2.7-2.8,3.9c1.6,0.1,3.3,0.5,4.8,0.3c3.5-0.6,7-1.6,10.5-2.4
		c0.1,0.5,0.2,0.9,0.3,1.4C394.3,547.9,389.8,549.1,385.3,550.4z M391.2,671.6c-0.2,0.5-0.4,1.1-0.7,1.6c-6.6-2.4-13.4-4.6-19.9-7.3
		c-2.8-1.1-4.4-1.1-5.2,3.3c10.8,3.4,21.8,6.9,33.4,10.5c0-8.8,0-16.2,0-23.3c-6.5-2.2-12.7-4-18.8-6.3c-3-1.1-4.3-0.5-4.9,2.9
		c5.3,2,10.5,4,15.8,6c-0.2,0.5-0.4,0.9-0.5,1.4c-4.6-1.6-9.1-3.4-13.8-4.8c-1.3-0.4-3,0.3-4.5,0.5c0,0.6,0.1,1.2,0.1,1.7
		c3.6,1.5,7.1,3.1,10.7,4.6c-0.2,0.4-0.3,0.8-0.5,1.2c-2.5-0.9-5.1-1.7-7.6-2.7c-4.4-1.8-4.4-1.8-5.8,2.6
		C376.4,666.3,383.8,669,391.2,671.6z M447.8,673.2c-0.2-0.5-0.4-1-0.5-1.5c7.6-2.8,15.2-5.5,23.8-8.7c-6-6-10.3,1.8-15.8-0.3
		c4.3-1.9,7.9-3.4,11.7-5.1c-3.2-5.7-6.2-0.7-8.9-0.3c-3.3,0.5-6.4,1.9-9.6,2.9c-0.2-0.4-0.3-0.9-0.5-1.3c5.3-2,10.5-4,15.8-6
		c0-0.6,0-1.3,0-1.9c-1.5-0.3-3.3-1.3-4.6-0.9c-5.8,1.6-11.4,3.5-17.1,5.4c-1,0.4-2.4,1.6-2.4,2.4c-0.2,6.8-0.1,13.5-0.1,21.9
		c11.9-3.8,22.9-7.2,33.7-10.6c-0.8-4.6-2.5-4.3-5.2-3.2C461.4,668.6,454.6,670.8,447.8,673.2z M425.8,636.4c-0.6,0.3-1.1,0.7-1.7,1
		c0.8,1.2,1.3,2.8,2.4,3.4c5.6,3.6,7.9,8.6,7.8,15.1c-0.2,6.6-0.1,13.3,0,19.9c0,1.2,0.4,2.4,0.6,3.6c0.5,0.1,0.9,0.2,1.4,0.3
		c0.5-1.1,1.3-2.2,1.3-3.3c0.1-8.3,0.4-16.6-0.1-24.9C436.9,644.1,432.8,639,425.8,636.4z M414.6,637.3c-8.4,1.4-13.1,7.2-13.3,14.9
		c-0.2,8-0.1,15.9,0,23.9c0,1.2,0.9,2.4,1.4,3.6c0.5-0.1,1-0.2,1.5-0.3c0.1-1.6,0.3-3.1,0.3-4.7c0-6,0.1-12,0-17.9
		c-0.2-6.8,1.9-12.3,8-16C413.5,640.1,413.9,638.5,414.6,637.3z M423.1,633.9c-2.6,0-4.8,0-7.4,0c0.4,3.4,0.8,6.4,1.3,9.8
		c1.9-0.1,3.4-0.2,4.8-0.3C422.3,640,422.7,637,423.1,633.9z"/>
	<path class="st0" d="M478.3,596.1c-4.1-5-4.5-8.2-1.3-11.1c3.3-3,9-2.9,11.7,0.3c2.3,2.7,1.5,5.3-2,8.6c1.5,3.4,3.3,6.4,4,9.7
		c0.3,1.4-1.4,3.7-2.7,4.9c-3.6,3.2-10.3,2.7-13.1-0.7C471.9,604.1,473,600.6,478.3,596.1z M480.2,597.4c-3,3.5-3.4,9-0.5,10.4
		c1.4,0.7,4.4,0,5.4-1.1C487.7,603.7,485.6,600.1,480.2,597.4z M483.7,593.6c2.7-2.9,3.5-5.7,0.8-8.3c-0.6-0.6-3.6-0.2-4,0.6
		C478.5,589.2,480.3,591.6,483.7,593.6z"/>
	<path class="st0" d="M502.4,591.7c2.6-1.1,5.1-2.6,7.9-3.2c3.6-0.8,7.3,0.5,8,4.2c0.5,2.4-1,5.6-2.5,7.8c-1.6,2.2-4.3,3.5-6.4,6.4
		c4-0.5,8-1,12.2-1.5c-0.1,0.4-0.4,2.2-0.8,4.3c-6.2,0-12.2,0-18.2,0c-0.2-0.3-0.4-0.7-0.5-1c1-0.9,2-1.8,3-2.6
		c1.1-0.8,2.3-1.4,3.3-2.3c2.9-2.5,6.5-5.2,4.3-9.6c-2.2-4.2-6.1-2.6-9.6-0.8C502.7,592.9,502.5,592.3,502.4,591.7z"/>
	<path class="st0" d="M359.7,588.2c1,4.4-1.6,4.7-4.8,4.5c-2.8-0.1-6.1-0.7-5,4.1c9,3.4,11.8,6.4,10.8,11.4c-1.1,5.2-7.1,8.1-15.4,7
		c4.8-1.5,11.2-1,10.3-7.2c-0.4-2.9-4.6-5.3-7.2-7.9c-0.6,0.3-1.2,0.6-1.8,0.9c0.7-3.8,0.1-8.8,2.3-11.2
		C350.9,587.7,356,588.6,359.7,588.2z"/>
	<path class="st0" d="M321.2,588.8c4.5,0,8.3,0,12.2,0c-4.2,4-4.3,17.5,0.1,21c-3.9,0-7.5,0-11,0
		C326.3,605.7,325.7,592.1,321.2,588.8z"/>
	<path class="st1" d="M399.4,650c-11.6-1.3-20-5.2-19.7-9.5c3.3,0.9,6.6,1.9,10.7,3c-2.7-4.6-10.1-1.9-10.4-8.7
		c5.6,1.3,10.6,2.5,15.6,3.7c0.1-0.5,0.3-0.9,0.4-1.4c-5-1.4-10-2.8-15.5-4.4c1.6-11.4,3.2-22.4,4.8-33.4c0.9-6.3,2.1-12.5,2.7-18.8
		c0.4-4.6,1.9-7.5,6.8-8.1c1.2-0.2,2.4-0.8,3.4-2.4c-2.6,0.5-5.3,1-7.9,1.6c-0.2-2.5-0.2-2.5,13.2-8.7c-2.1,0.3-4.2,0.4-6.2,0.9
		c-2.1,0.4-4.1,1.1-6.4,1.8c-0.3-2.6-0.6-5-1.1-8.8c2.4,0.9,4.2,1.6,6,2.3c0.2,0.6,0.3,1.1,0.5,1.7c0.9-1.1,1.8-2.3,2.7-3.4
		c0.6-0.8,1.3-1.9,2.1-2c0.8-0.1,1.7,0.9,2.5,1.4c0.8,0.5,1.7,1.6,2.5,1.5c0.7-0.1,1.7-1.3,1.9-2.2c0.7-3.1,2.7-2.7,4.3-1.3
		c4.1,3.8,4,4,5.8-2.3c1.6,1.4,2.7,2.5,3.8,3.5c0.6,0.6,1.3,1.5,2,1.5c0.7,0,1.4-0.8,2.1-1.3c0.9-0.7,1.8-2,2.6-2
		c0.8,0.1,1.5,1.5,2.3,2.3c0.6,0.6,1.2,1.8,1.8,1.8c0.8,0,1.6-1,2.5-1.5c1-0.6,2-1.6,2.9-1.4c0.7,0.1,1.1,1.7,1.7,2.6
		c0.5,0.7,1.1,1.6,1.8,1.8c0.7,0.2,1.6-0.4,2.4-0.8c1.4-0.7,2.8-1.5,5.1-2.8c-0.5,4.1-0.8,6.3-1.2,9.1c-4.1-0.9-8.3-1.9-12.4-2.8
		c3.7,4.6,11.6,1.5,14.4,9.4c-3.8-0.8-6.6-1.5-9.3-2.1c-0.1,0.3-0.2,0.6-0.3,0.9c0.7,0.4,1.4,1.1,2.2,1.2c6.4,0.6,8,4.6,8.7,10.3
		c1.9,15.4,4.2,30.7,6.7,46c0.6,3.6-0.3,5.2-3.8,5.8c-3.7,0.7-7.3,1.9-10.9,2.8c0.1,0.5,0.2,1,0.3,1.5c4.9-1.1,9.7-2.2,14.6-3.3
		c1.1,3.3,1.1,3.3-2.8,4.6c-2.1,0.7-4.2,1.5-6.3,2.2c0.1,0.4,0.2,0.9,0.4,1.3c3.2-0.8,6.3-1.7,9.5-2.5c0.4,0.3,0.8,0.6,1.2,0.8
		c-0.9,1.1-1.5,2.9-2.6,3.3c-5.6,2.2-11.2,4-17.2,6c-3.7-11.5-10.9-20-22.7-18.6C408.4,633.3,401.2,640,399.4,650z M402.3,597.5
		c5.7,1.1,11.2,2.2,16.7,3.1c0.6,0.1,1.3-0.1,1.9-0.3c2.2-0.6,4.5-1.5,6.7-1.7c2.9-0.3,5.8-0.1,9.1-0.1c-0.4-1.6-0.3-2.6-0.8-3.1
		c-4.8-4.7-5.1-10.2-1.2-16.5c0.4-0.6-0.5-2.3-1.1-3.2c-1.1-1.4-2.6-2.5-3.7-3.9c-3.2-3.9-6.4-7.9-10.4-12.9
		c-4.1,5.2-7.4,9.4-10.8,13.6c-0.8,1-1.3,2.5-2.4,2.9c-3.2,1.4-4.1,2.4-0.3,4.1c0.5,0.2,1,1.3,0.9,1.9c-1.2,5,2,11.3-4.4,14.7
		C402.2,596.3,402.3,597.1,402.3,597.5z M427.7,631.8c8.2-1.2,14.6-2.1,21.1-3.1c-0.8-6.1-1.1-11.3-2.1-16.3c-1-4.9-4.6-9.2-9.2-9.3
		c-2.7,0-6.9,4.5-7.7,7.7C428.2,617.2,428.4,624.1,427.7,631.8z M389.8,628.8c7,1,13.3,1.8,20.1,2.7c0-6.7,0.5-12.8-0.2-18.8
		c-0.5-4.6-6-10.3-8.5-10.1c-3.2,0.2-8.4,5.6-9.3,10.2C391,617.8,390.5,622.9,389.8,628.8z"/>
	<path class="st2" d="M385.3,550.4c4.5-1.3,9-2.6,13.5-3.8c-0.1-0.5-0.2-0.9-0.3-1.4c-3.5,0.8-7,1.8-10.5,2.4
		c-1.6,0.3-3.2-0.1-4.8-0.3c0.8-1.2,1.7-2.3,2.8-3.9c-1.6,0.1-2.9,0.2-4.7,0.3c-1.4-2.8-2.8-5.7-4.4-9c3.6-1.1,6.9-2.2,10.4-3.3
		c0.9,3.3,1.7,6.3,2.7,9.7c3.8-0.8,7.3-1.5,11.1-2.4c-0.5-3.4-0.9-6.4-1.4-9.9c4.5-0.5,8.5-1,13.1-1.5c0.3,3.4,0.6,6.5,0.9,9.9
		c3.7,0,7.3,0,11.1,0c0.3-3.1,0.5-6.2,0.8-9.8c4.6,0.5,8.8,0.9,13.3,1.4c-0.5,3.5-0.9,6.5-1.4,9.9c3.8,0.8,7.3,1.6,11.1,2.4
		c0.9-3.3,1.7-6.3,2.6-9.7c3.5,1.1,6.7,2.1,10.5,3.2c-1.6,3.3-2.9,6.1-4.3,9.1c-1.6-0.1-3-0.3-5.6-0.5c1.9,1.4,2.9,2.2,4.9,3.7
		c-6.2,3-11.3-2.6-17.9-0.8c5.6,1.7,10,3,14.4,4.3c0,0.5,0,1,0.1,1.5c-1.2,0.2-2.6,1-3.7,0.7c-20.2-5.4-40.4-5.4-60.6,0
		c-1.1,0.3-2.5-0.5-3.8-0.7C385.2,551.4,385.3,550.9,385.3,550.4z"/>
	<path class="st1" d="M391.2,671.6c-7.4-2.7-14.8-5.3-22.2-8c1.4-4.4,1.4-4.3,5.8-2.6c2.5,1,5.1,1.8,7.6,2.7
		c0.2-0.4,0.3-0.8,0.5-1.2c-3.6-1.5-7.1-3.1-10.7-4.6c0-0.6-0.1-1.2-0.1-1.7c1.5-0.2,3.2-0.9,4.5-0.5c4.7,1.4,9.2,3.2,13.8,4.8
		c0.2-0.5,0.4-0.9,0.5-1.4c-5.3-2-10.5-4-15.8-6c0.6-3.4,1.9-4.1,4.9-2.9c6,2.3,12.2,4.1,18.8,6.3c0,7.1,0,14.5,0,23.3
		c-11.6-3.7-22.6-7.1-33.4-10.5c0.8-4.4,2.4-4.4,5.2-3.3c6.6,2.6,13.3,4.9,19.9,7.3C390.7,672.7,391,672.1,391.2,671.6z"/>
	<path class="st1" d="M447.8,673.2c6.7-2.4,13.5-4.6,20.2-7.2c2.7-1,4.4-1.3,5.2,3.2c-10.8,3.4-21.7,6.9-33.7,10.6
		c0-8.4-0.1-15.1,0.1-21.9c0-0.8,1.4-2.1,2.4-2.4c5.6-2,11.3-3.9,17.1-5.4c1.3-0.4,3.1,0.6,4.6,0.9c0,0.6,0,1.3,0,1.9
		c-5.3,2-10.5,4-15.8,6c0.2,0.4,0.3,0.9,0.5,1.3c3.2-1,6.3-2.4,9.6-2.9c2.7-0.4,5.6-5.4,8.9,0.3c-3.8,1.7-7.3,3.2-11.7,5.1
		c5.5,2.1,9.9-5.7,15.8,0.3c-8.6,3.1-16.2,5.9-23.8,8.7C447.5,672.2,447.7,672.7,447.8,673.2z"/>
	<path class="st3" d="M425.8,636.4c7,2.6,11.1,7.7,11.5,15.1c0.5,8.3,0.2,16.6,0.1,24.9c0,1.1-0.9,2.2-1.3,3.3
		c-0.5-0.1-0.9-0.2-1.4-0.3c-0.2-1.2-0.5-2.4-0.6-3.6c-0.1-6.6-0.2-13.3,0-19.9c0.2-6.5-2.2-11.6-7.8-15.1c-1.1-0.7-1.6-2.3-2.4-3.4
		C424.6,637.1,425.2,636.7,425.8,636.4z"/>
	<path class="st3" d="M414.6,637.3c-0.7,1.2-1.1,2.8-2.1,3.4c-6.1,3.7-8.1,9.2-8,16c0.1,6,0,11.9,0,17.9c0,1.6-0.2,3.1-0.3,4.7
		c-0.5,0.1-1,0.2-1.5,0.3c-0.5-1.2-1.4-2.4-1.4-3.6c-0.1-8-0.2-15.9,0-23.9C401.4,644.5,406.2,638.7,414.6,637.3z"/>
	<path class="st3" d="M423.1,633.9c-0.4,3.2-0.8,6.1-1.3,9.6c-1.4,0.1-2.9,0.2-4.8,0.3c-0.4-3.4-0.8-6.4-1.3-9.8
		C418.3,633.9,420.5,633.9,423.1,633.9z"/>
	<path class="st1" d="M480.2,597.4c5.4,2.7,7.5,6.3,4.9,9.3c-1,1.1-4,1.8-5.4,1.1C476.8,606.4,477.3,601,480.2,597.4z"/>
	<path class="st4" d="M483.7,593.6c-3.4-2-5.2-4.4-3.3-7.8c0.4-0.8,3.4-1.2,4-0.6C487.2,587.9,486.4,590.7,483.7,593.6z"/>
	<path class="st5" d="M402.3,597.5c0-0.4-0.1-1.2,0.2-1.3c6.3-3.5,3.2-9.8,4.4-14.7c0.1-0.6-0.4-1.7-0.9-1.9c-3.8-1.7-3-2.8,0.3-4.1
		c1-0.4,1.6-1.9,2.4-2.9c3.3-4.2,6.7-8.5,10.8-13.6c4,5,7.2,9,10.4,12.9c1.2,1.4,2.7,2.5,3.7,3.9c0.7,0.9,1.5,2.6,1.1,3.2
		c-3.9,6.3-3.6,11.8,1.2,16.5c0.5,0.5,0.4,1.5,0.8,3.1c-3.3,0-6.2-0.2-9.1,0.1c-2.3,0.2-4.5,1.1-6.7,1.7c-0.6,0.2-1.3,0.4-1.9,0.3
		C413.5,599.6,408,598.6,402.3,597.5z M420.5,577.8c0,2.6,0,4.8,0,7.2c2.7,0,5,0,7.7,0c-0.1-2.6-0.3-4.8-0.4-7.2
		C425.1,577.8,423,577.8,420.5,577.8z M428.3,587.5c-2.7,0-5.2,0-8.3,0c0.3,2.6,0.5,4.8,0.7,6.9c2.9,0,5.3,0,7.9,0
		C428.5,592.2,428.5,590.2,428.3,587.5z M417.9,587.4c-2.8,0-5,0-7.6,0c0,2.5,0,4.7,0,7c2.6,0,5,0,7.6,0
		C417.9,592,417.9,589.9,417.9,587.4z M418.1,577.5c-2.6,0.1-4.6,0.2-7.2,0.3c-0.1,2.5-0.2,4.7-0.4,7.2c2.7,0,5,0,7.5,0
		C418.1,582.6,418.1,580.4,418.1,577.5z M421.5,566.3c-0.4,0.2-0.7,0.4-1.1,0.6c0,2.8,0,5.5,0,8.7c2.4,0.1,4.5,0.2,8.2,0.4
		C425.6,571.9,423.5,569.1,421.5,566.3z M418,575.5c0-3.3,0-6,0-8.6c-0.3-0.1-0.7-0.2-1-0.3c-2,2.8-4.1,5.6-6.8,9.4
		C413.7,575.8,415.8,575.7,418,575.5z"/>
	<path class="st5" d="M427.7,631.8c0.7-7.7,0.5-14.6,2.1-21c0.8-3.2,5.1-7.7,7.7-7.7c4.6,0,8.1,4.4,9.2,9.3c1.1,5,1.4,10.2,2.1,16.3
		C442.3,629.7,435.9,630.6,427.7,631.8z M432.4,627.1c7.8,0.2,4-4.8,4.6-8.3c-2,0.4-3.5,0.7-5.1,1.1
		C432.1,622.4,432.2,624.5,432.4,627.1z M439.3,627.3c2.3-1.4,4.5-2,4.8-3.1c0.5-1.9-0.1-4.1-0.3-6.4c-1.9,0.4-3.3,0.7-4.8,1
		C439.1,621.3,439.2,623.4,439.3,627.3z M437.1,616.9c-0.3-3.2-0.5-5.7-0.8-8.3c-0.5-0.1-1-0.2-1.5-0.3c-1.1,2.8-2.3,5.5-3.7,9.2
		C433.8,617.3,435.1,617.1,437.1,616.9z M444.7,615.7c-2.2-3.3-3.7-5.7-5.3-8.1c-0.4,0.2-0.8,0.4-1.2,0.6c0.3,2.7,0.6,5.4,0.9,8.4
		C440.6,616.3,441.9,616.1,444.7,615.7z"/>
	<path class="st0" d="M389.8,628.8c0.8-5.9,1.2-11,2.1-16c0.9-4.6,6.1-10,9.3-10.2c2.5-0.2,8.1,5.5,8.5,10.1
		c0.6,6,0.2,12.1,0.2,18.8C403.1,630.6,396.8,629.8,389.8,628.8z M395.1,617.8c-0.4,2.7-0.7,4.9-1.1,7.6c1.8,0.4,3.3,0.6,5.1,1
		c0.3-2.8,0.5-5.1,0.7-7.5C398.2,618.5,397,618.2,395.1,617.8z M401,626.4c1.9,0.3,3.3,0.5,5.2,0.8c0.2-2.7,0.4-5.1,0.6-7.7
		c-2-0.2-3.4-0.3-5.1-0.4C401.5,621.6,401.3,623.7,401,626.4z M403.7,608.2c-0.5,0.2-1,0.3-1.5,0.5c0,2.6,0,5.2,0,8.3
		c1.6,0,3,0,5.5,0C406.1,613.6,404.9,610.9,403.7,608.2z M394.1,615.8c2.8,0.4,4.1,0.6,5.8,0.8c0.2-3,0.3-5.6,0.5-8.2
		c-0.5-0.2-1-0.3-1.4-0.5C397.5,610.2,396.1,612.5,394.1,615.8z"/>
	<path class="st1" d="M420.5,577.8c2.5,0,4.7,0,7.3,0c0.1,2.4,0.2,4.6,0.4,7.2c-2.7,0-5,0-7.7,0
		C420.5,582.6,420.5,580.4,420.5,577.8z"/>
	<path class="st1" d="M428.3,587.5c0.1,2.8,0.2,4.7,0.4,6.9c-2.6,0-5,0-7.9,0c-0.2-2.2-0.4-4.3-0.7-6.9
		C423.1,587.5,425.6,587.5,428.3,587.5z"/>
	<path class="st1" d="M417.9,587.4c0,2.5,0,4.6,0,7c-2.5,0-4.9,0-7.6,0c0-2.2,0-4.4,0-7C412.9,587.4,415.2,587.4,417.9,587.4z"/>
	<path class="st1" d="M418.1,577.5c0,2.9,0,5.1,0,7.6c-2.6,0-4.8,0-7.5,0c0.1-2.5,0.2-4.7,0.4-7.2
		C413.5,577.8,415.6,577.7,418.1,577.5z"/>
	<path class="st1" d="M421.5,566.3c2.1,2.8,4.1,5.6,7.1,9.7c-3.7-0.2-5.8-0.3-8.2-0.4c0-3.2,0-5.9,0-8.7
		C420.8,566.7,421.1,566.5,421.5,566.3z"/>
	<path class="st1" d="M418,575.5c-2.2,0.1-4.3,0.2-7.8,0.4c2.7-3.8,4.8-6.6,6.8-9.4c0.3,0.1,0.7,0.2,1,0.3
		C418,569.6,418,572.2,418,575.5z"/>
	<path class="st1" d="M432.4,627.1c-0.2-2.6-0.3-4.7-0.5-7.2c1.6-0.3,3.1-0.7,5.1-1.1C436.4,622.3,440.2,627.3,432.4,627.1z"/>
	<path class="st1" d="M439.3,627.3c-0.2-3.9-0.3-6-0.4-8.5c1.6-0.3,2.9-0.6,4.8-1c0.2,2.3,0.8,4.5,0.3,6.4
		C443.8,625.3,441.7,625.9,439.3,627.3z"/>
	<path class="st1" d="M437.1,616.9c-1.9,0.2-3.3,0.3-6,0.6c1.5-3.6,2.6-6.4,3.7-9.2c0.5,0.1,1,0.2,1.5,0.3
		C436.5,611.2,436.8,613.7,437.1,616.9z"/>
	<path class="st1" d="M444.7,615.7c-2.8,0.5-4,0.7-5.7,1c-0.3-3-0.6-5.7-0.9-8.4c0.4-0.2,0.8-0.4,1.2-0.6
		C440.9,610,442.5,612.4,444.7,615.7z"/>
	<path class="st1" d="M395.1,617.8c1.9,0.4,3.1,0.7,4.8,1.1c-0.2,2.4-0.4,4.7-0.7,7.5c-1.9-0.4-3.3-0.7-5.1-1
		C394.4,622.7,394.7,620.5,395.1,617.8z"/>
	<path class="st1" d="M401,626.4c0.3-2.7,0.5-4.9,0.7-7.3c1.7,0.1,3.1,0.3,5.1,0.4c-0.2,2.6-0.4,5-0.6,7.7
		C404.4,627,403,626.7,401,626.4z"/>
	<path class="st1" d="M403.7,608.2c1.2,2.7,2.4,5.4,4,8.8c-2.4,0-3.9,0-5.5,0c0-3,0-5.7,0-8.3C402.7,608.5,403.2,608.3,403.7,608.2z
		"/>
	<path class="st1" d="M394.1,615.8c2-3.2,3.4-5.5,4.9-7.9c0.5,0.2,1,0.3,1.4,0.5c-0.1,2.6-0.3,5.2-0.5,8.2
		C398.2,616.3,396.8,616.2,394.1,615.8z"/>
	<g>
		<path class="st0" d="M304.8,719.2c7.4,0.4,14.8,0.4,22.2,1.3c4.8,0.6,8.7,3.5,9.8,8.7c1.4,6.5-2,11.6-8.6,13
			c-1.3,0.3-2.6,0.4-4.4,0.7c2.1,1.2,3.8,2.2,5.5,3.3c0.9,0.7,1.9,1.5,2.5,2.4c2,3.1,3.9,6.3,5.9,9.5c1.7,2.7,3.2,5.4,6.9,6.3
			c-5.2,2.1-11,0-13.7-4.8c-2.6-4.7-5.1-9.6-7.4-14.4c-0.7-1.4-1.5-2-3-1.8c-1.2,0.1-2.5,0-3.8,0c0,6.7,0,13.3,0,20
			c1.4,0.3,2.9,0.6,4.4,0.9c0,0.1,0,0.2,0,0.3c-5.4,0-10.8,0-16.2,0c0-0.1,0-0.3-0.1-0.4c0.9-0.2,1.9-0.4,2.8-0.5
			c1.6-0.1,2-0.8,2-2.4c-0.1-11.3,0-22.7,0-34c0-1.4-0.1-2.9,0-4.3c0.1-1.5-0.3-2.4-2-2.4c-0.9,0-1.9-0.4-2.8-0.5
			C304.8,719.7,304.8,719.4,304.8,719.2z M316.7,742.1c4.4-0.1,8.8,0.5,11.6-3.8c2.4-3.7,2.1-10.7-0.5-14.2c-2.2-3-6.9-4.4-11.1-3.2
			C316.7,727.9,316.7,734.9,316.7,742.1z"/>
		<path class="st0" d="M469.8,742.9c1.9,1.1,3.4,1.9,4.8,2.9c1.3,1,2.5,2,3.4,3.3c2.3,3.4,4.4,7,6.6,10.6c1.3,2.1,2.9,4,5.6,4.5
			c-2.8,1.8-8.9,0.7-11.5-2.1c-1.1-1.2-2.1-2.7-2.9-4.2c-2.3-4.3-4.5-8.6-6.6-12.9c-0.6-1.3-1.3-2-2.9-1.8c-1.2,0.1-2.5,0-3.9,0
			c0,6.7,0,13.3,0,20.1c1.5,0.3,3,0.6,4.5,0.9c0,0.1,0,0.2,0,0.2c-5.4,0-10.9,0-16.3,0c0-0.1,0-0.2-0.1-0.3c1.5-0.3,3-0.6,4.7-0.9
			c0-0.6,0-1.3,0-1.9c0-12.8,0-25.6,0-38.4c0-1.7-0.5-2.4-2.2-2.4c-0.9,0-1.7-0.3-2.7-0.5c0.2-0.2,0.3-0.5,0.4-0.5
			c6.6,0.1,13.2,0,19.8,0.4c2.2,0.1,4.6,1.1,6.6,2.1c4.4,2.4,6.3,6.8,5.5,11.5c-0.7,4.4-3.8,7.5-8.7,8.6
			C472.8,742.4,471.6,742.6,469.8,742.9z M462.6,720.7c0,7.2,0,14.3,0,21.4c4.3,0,8.7,0.5,11.3-3.7c2.8-4.4,2.4-9.2,0-13.7
			C471.4,720.4,467,720.5,462.6,720.7z"/>
		<path class="st0" d="M247,743.8c-0.1,5.3-1.6,12.1-7,17.3c-6.8,6.6-17.8,6.1-24.2-0.9c-8.3-9.1-8-27.2,0.1-36.4
			c6.9-7.8,22-8.2,28.2,4.5C246.3,732.7,247,737.3,247,743.8z M217.8,742c0,1.6-0.1,3.2,0,4.7c0.3,4.3,0.8,8.7,2.7,12.7
			c1.6,3.4,4.3,5.5,8.1,5.5c3.7,0,6.2-2.1,7.9-5.2c0.6-1,1-2.2,1.3-3.3c2.3-7.5,2.3-15.2,1.2-22.8c-0.5-3.3-1.4-6.7-2.9-9.7
			c-2.1-4.3-6.9-5.8-11.1-3.9c-3,1.4-4.4,4.1-5.4,7C218,731.8,217.6,736.9,217.8,742z"/>
		<path class="st0" d="M525.4,745.9c-2.2-0.3-4.2-0.5-6.3-0.8c0-0.1,0-0.2,0-0.3c5.8,0,11.5,0,17.3,0c0,0.1,0,0.1,0.1,0.2
			c-0.3,0.1-0.6,0.2-0.9,0.3c-3,0.7-3,0.7-3,3.7c0,4.9,0,9.7,0,14.6c0,0.7,0,1.3,0,2.2c-0.7-0.2-1.1-0.2-1.4-0.5
			c-2-1.4-4-1.2-6.3-0.5c-13.4,4-24.8-3.8-26.4-18c-0.6-5.8-0.4-11.4,2-16.9c3.8-8.6,12.3-13.1,21.8-11.4c1.3,0.2,2.7,0.4,3.8,1
			c1.8,1,3,0.6,4.2-0.9c0.2-0.3,0.5-0.5,1.1-1c0.3,5,0.7,9.7,1,14.4c-0.1,0-0.3,0.1-0.4,0.1c-1.3-2.9-2.7-5.7-4-8.6
			c-0.7-1.6-1.7-2.5-3.3-3.1c-7.9-3.2-14.3-0.4-16.9,7.7c-2.9,9.1-2.7,18.4,0.2,27.5c0.5,1.7,1.5,3.3,2.6,4.8
			c3.6,4.9,8.7,5,13.9,3.3c0.4-0.1,0.8-0.7,0.8-1.1C525.4,757.1,525.4,751.6,525.4,745.9z"/>
		<path class="st0" d="M599.1,763.4c2.8,0.3,5.4,0.6,8.1,0.9c0,0.1,0,0.1,0,0.2c-4.8,0-9.5,0-14.3,0c0-0.1,0-0.1,0-0.2
			c1.5-0.3,2.9-0.6,4.6-0.9c0-0.7,0-1.3,0-1.9c0-12.7,0-25.3,0-38c0-1.7-0.5-2.4-2.1-2.6c-0.9-0.1-1.9-0.5-2.8-0.8
			c0-0.2,0-0.3,0.1-0.5c2.7,0,5.3,0.3,8-0.1c3.1-0.4,4.6,0.9,6.1,3.5c6.2,10.9,12.7,21.6,19.1,32.4c0.3,0.5,0.7,1.1,1.2,1.9
			c0.1-0.8,0.2-1.2,0.2-1.7c-0.1-10.9-0.3-21.8-0.4-32.7c0-1.6-0.5-2.2-2.1-2.3c-2.1-0.1-4.2-0.4-6.3-0.9c4.9,0,9.8,0,14.7,0
			c0,0.1,0.1,0.2,0.1,0.3c-1.6,0.3-3.1,0.7-4.8,1c0,0.8,0,1.5,0,2.3c0,10.9,0.1,21.8,0,32.7c0,2.4,0.3,4.5,1.7,6.4
			c0.4,0.5,0.7,1.2,1.2,2.1c-2.7,0-5,0.1-7.4-0.1c-0.6,0-1.1-1.1-1.5-1.7c-7.4-12.4-14.9-24.7-22.3-37.1c-0.3-0.6-0.7-1.1-1.5-1.6
			C598.7,737.1,598.9,750.2,599.1,763.4z"/>
		<path class="st0" d="M547.7,719.6c10,0,20,0,30.3,0c0.3,4.1,0.6,8.2,0.8,12.3c-0.2,0-0.3,0.1-0.5,0.1c-1.4-3.1-2.8-6.3-4-9.5
			c-0.5-1.2-1.1-1.7-2.4-1.7c-4,0.1-8,0-12.1,0c0,6.5,0,13.3,0,20c3.6,0,7,0,10.4-0.1c0.4,0,1-0.7,1.2-1.2c0.8-1.6,1.5-3.3,2.5-4.9
			c0,4.5,0,9.1,0,13.6c-0.1,0.1-0.2,0.1-0.2,0.2c-0.7-1.7-1.5-3.3-2.2-5c-0.4-1-1-1.4-2.1-1.4c-3.2,0.1-6.4,0-9.7,0
			c0,7.2,0,14.3,0,21.1c4.8,0,9.5,0,14.2-0.1c0.4,0,1-0.8,1.2-1.4c1.6-3.9,3.1-7.9,5.1-11.8c-0.5,4.8-1,9.5-1.5,14.4
			c-10.4,0-20.7,0-31,0c0,0,0-0.1,0-0.1c1.5-0.3,2.9-0.6,4.6-0.9c0-0.7,0-1.4,0-2c0-12.7,0-25.3,0-38c0-1.9-0.4-2.8-2.4-2.8
			c-0.8,0-1.6-0.3-2.4-0.5C547.6,719.9,547.6,719.8,547.7,719.6z"/>
		<path class="st0" d="M642.6,719.6c10.7,0,21.1,0,31.9,0c0.2,4.6,0.5,9.2,0.7,13.8c-0.2,0-0.3,0.1-0.5,0.1c-1-2.7-2-5.3-3-8
			c-1.7-4.7-1.7-4.7-6.6-4.9c-0.9,0-1.9,0-2.9,0c0,14.2,0,28.4,0,42.7c1.4,0.3,2.9,0.6,4.3,0.9c0,0.1,0,0.1,0,0.2
			c-5.3,0-10.6,0-16,0c0,0,0-0.1,0-0.1c1.4-0.3,2.9-0.6,4.4-0.9c0-14.2,0-28.4,0-42.8c-2.5,0.2-5,0.3-7.4,0.5
			c-0.4,0-0.9,0.8-1.1,1.3c-1.5,3.9-2.8,7.8-4.2,11.7c-0.2,0-0.3,0-0.5-0.1C642,729.2,642.3,724.5,642.6,719.6z"/>
		<path class="st0" d="M180.7,720.5c-2.5,0.2-4.8,0.2-7.1,0.5c-0.5,0.1-1.1,0.7-1.3,1.3c-1.3,3.3-2.5,6.7-3.7,10.1
			c-0.2,0.6-0.5,1.1-1.1,1.6c0.3-4.7,0.6-9.4,0.9-14.3c10.5,0,21,0,31.8,0c0.3,4.7,0.6,9.5,0.9,14.2c-0.1,0-0.3,0.1-0.4,0.1
			c-1.3-3.7-2.7-7.4-4-11.1c-0.5-1.3-1-2.1-2.6-2c-1.9,0.1-3.9-0.2-5.9-0.3c0,14.3,0,28.5,0,42.8c1.4,0.3,2.9,0.6,4.4,0.9
			c0,0.1,0,0.1,0,0.2c-5.4,0-10.7,0-16.1,0c0-0.1,0-0.2,0-0.3c1.5-0.3,2.9-0.5,4.4-0.8C180.7,749.2,180.7,735,180.7,720.5z"/>
		<path class="st0" d="M289.8,721c-2.7-0.3-5.2-0.6-7.7-0.9c0-0.1,0-0.3,0-0.4c4.7,0,9.4,0,14.1,0c0,0.1,0.1,0.2,0.1,0.3
			c-1,0.2-2,0.5-3.1,0.6c-1.5,0.1-1.9,0.6-1.9,2.1c0.2,7.6,0.3,15.1,0.3,22.7c0,3.3-0.3,6.6-0.9,9.7c-1.4,6.5-5.3,10.3-11.3,10.7
			c-6.6,0.5-12.3-1.8-15-7.9c-1.4-3-2.2-6.5-2.3-9.8c-0.2-8.3,0.1-16.6,0.3-24.9c0-1.8-0.3-2.8-2.2-2.7c-0.8,0-1.6-0.3-2.4-0.8
			c5.5,0,11,0,16.5,0c0,0.1,0,0.2,0.1,0.3c-1.2,0.2-2.4,0.3-3.5,0.7c-0.6,0.2-1.3,0.8-1.4,1.3c-0.2,10-0.3,20-0.3,30
			c0,2,0.8,4.1,1.6,6c1.5,3.6,4.4,5.6,8.3,5.8c4,0.1,7.1-1.6,8.7-5.2c1.2-2.6,2.2-5.5,2.2-8.3C290.2,740.5,289.9,730.8,289.8,721z"
			/>
		<path class="st0" d="M422.9,716.7c0.3,0.6,0.6,1.2,0.8,1.8c5,14.2,10,28.3,14.9,42.6c0.7,2,1.9,2.8,3.7,3.4c-5,0-9.9,0-14.9,0
			c0-0.1,0-0.2-0.1-0.3c1.5-0.3,3-0.6,4.6-0.9c-1.8-5.4-3.6-10.8-5.5-16.3c-2.4,2.1-4.5,4-6.8,6c-2.3-2-4.6-4-7-6.1
			c-2,5.6-3.9,11-5.8,16.5c2.4,0.3,4.6,0.6,6.8,0.9c0,0.1,0,0.2,0,0.3c-3.8,0-7.6,0-11.4,0c0.1-0.2,0.1-0.4,0.1-0.4
			c2.5-0.2,3.2-2,4-4c5-13.8,10.1-27.5,15.1-41.3c0.3-0.7,0.6-1.4,0.9-2.1C422.5,716.7,422.7,716.7,422.9,716.7z M419.6,726.5
			c-2.3,6.7-4.5,13-6.7,19.3c1.4,1,2.7,1.9,4,2.8c2.9,2,2.9,2,5.6,0c3.6-2.7,3.6-2.7,2.2-7C423.1,736.7,421.4,731.8,419.6,726.5z"/>
		<path class="st0" d="M356.9,726.8c0.3-0.2,0.4-0.4,0.6-0.4c5,0.1,10-0.2,14.9,0.5c6.1,0.8,9.9,5,11.2,11.2c1.4,7-1.1,13-6.6,16.3
			c-0.9,0.5-1.9,1-2.9,1.2c-5.6,1.4-11.2,0.6-16.8,0.8c0-0.2-0.1-0.3-0.1-0.5c0.7-0.2,1.3-0.5,2-0.4c1.6,0.1,1.8-0.7,1.8-2.1
			c-0.1-7.8-0.1-15.5,0-23.3c0-1.9-0.2-3-2.4-2.9C358,727.3,357.5,727,356.9,726.8z M366.7,727.6c0,9.2,0,18.4,0,27.6
			c4.5,0.7,7.9-1.2,9.6-5.5c2.2-5.6,2-11.2-0.1-16.8C374.6,728.7,371.1,727,366.7,727.6z"/>
		<path class="st0" d="M398.4,726.6c-1.3,6.1-5,10.4-9.7,14c2.2-4,4.3-8,4.4-12.9c-1.2-0.3-2.3-0.5-3.5-0.7c0-0.1,0-0.2,0-0.4
			C392.5,726.6,395.3,726.6,398.4,726.6z"/>
	</g>
</g>
</svg>
